mtllib cube.mtl
g cube
usemtl texture

# ===== Face 1: +X (c g h d) =====
v  1.0  1.0 -1.0
v  1.0  1.0  1.0
v  1.0 -1.0  1.0
v  1.0 -1.0 -1.0

vt 0 0
vt 8 0
vt 8 8
vt 0 8

vn 1 0 0

f 1/1/1 2/2/1 3/3/1
f 1/1/1 3/3/1 4/4/1


# ===== Face 2: -X (a e f b) =====
v -1.0 -1.0 -1.0
v -1.0 -1.0  1.0
v -1.0  1.0  1.0
v -1.0  1.0 -1.0

vt 0 0
vt 8 0
vt 8 8
vt 0 8

vn -1 0 0

f 5/5/2 6/6/2 7/7/2
f 5/5/2 7/7/2 8/8/2


# ===== Face 3: +Y (g c b f) =====
v  1.0  1.0  1.0
v  1.0  1.0 -1.0
v -1.0  1.0 -1.0
v -1.0  1.0  1.0

vt 0 0
vt 8 0
vt 8 8
vt 0 8

vn 0 1 0

f 9/9/3 10/10/3 11/11/3
f 9/9/3 11/11/3 12/12/3


# ===== Face 4: -Y (d h e a) =====
v  1.0 -1.0 -1.0
v  1.0 -1.0  1.0
v -1.0 -1.0  1.0
v -1.0 -1.0 -1.0

vt 0 0
vt 8 0
vt 8 8
vt 0 8

vn 0 -1 0

f 13/13/4 14/14/4 15/15/4
f 13/13/4 15/15/4 16/16/4


# ===== Face 5: +Z (h g f e) =====
v  1.0 -1.0  1.0
v  1.0  1.0  1.0
v -1.0  1.0  1.0
v -1.0 -1.0  1.0

vt 0 0
vt 8 0
vt 8 8
vt 0 8

vn 0 0 1

f 17/17/5 18/18/5 19/19/5
f 17/17/5 19/19/5 20/20/5


# ===== Face 6: -Z (c d a b) =====
v  1.0  1.0 -1.0
v  1.0 -1.0 -1.0
v -1.0 -1.0 -1.0
v -1.0  1.0 -1.0

vt 0 0
vt 8 0
vt 8 8
vt 0 8

vn 0 0 -1

f 21/21/6 22/22/6 23/23/6
f 21/21/6 23/23/6 24/24/6